<?xml version="1.0" encoding="UTF-8" standalone="no"?>
<!DOCTYPE svg PUBLIC "-//W3C//DTD SVG 1.1//EN"
 "http://www.w3.org/Graphics/SVG/1.1/DTD/svg11.dtd">
<!-- Generated by graphviz version 2.38.0 (20140413.2041)
 -->
<!-- Title: dependencies Pages: 1 -->
<svg width="553pt" height="720pt"
 viewBox="0.00 0.00 552.78 720.00" xmlns="http://www.w3.org/2000/svg" xmlns:xlink="http://www.w3.org/1999/xlink">
<g id="graph0" class="graph" transform="scale(0.489935 0.489935) rotate(0) translate(4 1465.58)">
<title>dependencies</title>
<polygon fill="white" stroke="none" points="-4,4 -4,-1465.58 1124.27,-1465.58 1124.27,4 -4,4"/>
<!-- trunk -->
<g id="node1" class="node"><title>trunk</title>
<ellipse fill="lightgrey" stroke="black" cx="115.268" cy="-64" rx="27" ry="18"/>
<text text-anchor="middle" x="115.268" y="-62.4" font-family="Times,serif" font-size="7.00">trunk</text>
</g>
<!-- trunk/app -->
<g id="node2" class="node"><title>trunk/app</title>
<ellipse fill="lightgrey" stroke="black" cx="115.268" cy="-118" rx="27" ry="18"/>
<text text-anchor="middle" x="115.268" y="-116.4" font-family="Times,serif" font-size="7.00">trunk/app</text>
</g>
<!-- trunk/app/admin.py -->
<g id="node3" class="node"><title>trunk/app/admin.py</title>
<ellipse fill="lightgrey" stroke="black" cx="775.268" cy="-608" rx="41.1081" ry="18"/>
<text text-anchor="middle" x="775.268" y="-606.4" font-family="Times,serif" font-size="7.00">trunk/app/admin.py</text>
</g>
<!-- logging -->
<g id="node4" class="node"><title>logging</title>
<ellipse fill="none" stroke="black" cx="1047.27" cy="-762" rx="27" ry="18"/>
<text text-anchor="middle" x="1047.27" y="-760.4" font-family="Times,serif" font-size="7.00">logging</text>
</g>
<!-- trunk/app/admin.py&#45;&gt;logging -->
<g id="edge1" class="edge"><title>trunk/app/admin.py&#45;&gt;logging</title>
<path fill="none" stroke="black" d="M805.234,-620.391C814.982,-624.772 825.843,-629.887 835.549,-635 903.213,-670.648 979.308,-718.558 1018.94,-744.138"/>
<polygon fill="black" stroke="black" points="1017.22,-747.194 1027.52,-749.693 1021.02,-741.319 1017.22,-747.194"/>
</g>
<!-- os.py -->
<g id="node5" class="node"><title>os.py</title>
<ellipse fill="none" stroke="black" cx="1047.27" cy="-816" rx="27" ry="18"/>
<text text-anchor="middle" x="1047.27" y="-814.4" font-family="Times,serif" font-size="7.00">os.py</text>
</g>
<!-- trunk/app/admin.py&#45;&gt;os.py -->
<g id="edge2" class="edge"><title>trunk/app/admin.py&#45;&gt;os.py</title>
<path fill="none" stroke="black" d="M806.704,-619.836C816.246,-624.073 826.612,-629.243 835.549,-635 923.081,-691.393 931.999,-722.477 1012.1,-789 1014.86,-791.291 1017.77,-793.66 1020.68,-796"/>
<polygon fill="black" stroke="black" points="1018.75,-798.938 1028.76,-802.426 1023.11,-793.46 1018.75,-798.938"/>
</g>
<!-- web -->
<g id="node6" class="node"><title>web</title>
<ellipse fill="none" stroke="black" cx="1047.27" cy="-524" rx="27" ry="18"/>
<text text-anchor="middle" x="1047.27" y="-522.4" font-family="Times,serif" font-size="7.00">web</text>
</g>
<!-- trunk/app/admin.py&#45;&gt;web -->
<g id="edge3" class="edge"><title>trunk/app/admin.py&#45;&gt;web</title>
<path fill="none" stroke="black" d="M809.375,-597.7C861.125,-581.6 960.632,-550.642 1012.68,-534.45"/>
<polygon fill="black" stroke="black" points="1013.92,-537.73 1022.43,-531.418 1011.84,-531.046 1013.92,-537.73"/>
</g>
<!-- web/form.py -->
<g id="node7" class="node"><title>web/form.py</title>
<ellipse fill="none" stroke="black" cx="1047.27" cy="-608" rx="29.6648" ry="18"/>
<text text-anchor="middle" x="1047.27" y="-606.4" font-family="Times,serif" font-size="7.00">web/form.py</text>
</g>
<!-- trunk/app/admin.py&#45;&gt;web/form.py -->
<g id="edge4" class="edge"><title>trunk/app/admin.py&#45;&gt;web/form.py</title>
<path fill="none" stroke="black" d="M816.689,-608C868.193,-608 956.604,-608 1007.37,-608"/>
<polygon fill="black" stroke="black" points="1007.6,-611.5 1017.6,-608 1007.6,-604.5 1007.6,-611.5"/>
</g>
<!-- trunk/app/common -->
<g id="node8" class="node"><title>trunk/app/common</title>
<ellipse fill="lightgrey" stroke="black" cx="115.268" cy="-1252" rx="40.3754" ry="18"/>
<text text-anchor="middle" x="115.268" y="-1250.4" font-family="Times,serif" font-size="7.00">trunk/app/common</text>
</g>
<!-- trunk/app/common/common.py -->
<g id="node9" class="node"><title>trunk/app/common/common.py</title>
<ellipse fill="lightgrey" stroke="black" cx="775.268" cy="-1030" rx="60.0626" ry="18"/>
<text text-anchor="middle" x="775.268" y="-1028.4" font-family="Times,serif" font-size="7.00">trunk/app/common/common.py</text>
</g>
<!-- trunk/app/common/common.py&#45;&gt;logging -->
<g id="edge8" class="edge"><title>trunk/app/common/common.py&#45;&gt;logging</title>
<path fill="none" stroke="black" d="M791.858,-1012.61C828.652,-971.897 924.402,-867.884 1012.1,-789 1014.77,-786.602 1017.62,-784.165 1020.5,-781.787"/>
<polygon fill="black" stroke="black" points="1022.94,-784.315 1028.54,-775.319 1018.55,-778.861 1022.94,-784.315"/>
</g>
<!-- trunk/app/common/common.py&#45;&gt;os.py -->
<g id="edge9" class="edge"><title>trunk/app/common/common.py&#45;&gt;os.py</title>
<path fill="none" stroke="black" d="M807.483,-1014.79C816.763,-1009.83 826.787,-1004.04 835.549,-998 909.668,-946.889 987.476,-873.813 1024.37,-837.786"/>
<polygon fill="black" stroke="black" points="1026.92,-840.186 1031.61,-830.682 1022.02,-835.19 1026.92,-840.186"/>
</g>
<!-- trunk/app/common/common.py&#45;&gt;web -->
<g id="edge11" class="edge"><title>trunk/app/common/common.py&#45;&gt;web</title>
<path fill="none" stroke="black" d="M785.343,-1011.84C816.063,-950.564 919.391,-746.051 1012.1,-581 1017.93,-570.633 1024.6,-559.375 1030.49,-549.623"/>
<polygon fill="black" stroke="black" points="1033.64,-551.176 1035.85,-540.814 1027.66,-547.539 1033.64,-551.176"/>
</g>
<!-- ConfigParser.py -->
<g id="node10" class="node"><title>ConfigParser.py</title>
<ellipse fill="none" stroke="black" cx="1047.27" cy="-949" rx="35.3285" ry="18"/>
<text text-anchor="middle" x="1047.27" y="-947.4" font-family="Times,serif" font-size="7.00">ConfigParser.py</text>
</g>
<!-- trunk/app/common/common.py&#45;&gt;ConfigParser.py -->
<g id="edge5" class="edge"><title>trunk/app/common/common.py&#45;&gt;ConfigParser.py</title>
<path fill="none" stroke="black" d="M818.455,-1017.34C869.934,-1001.9 956.31,-975.987 1006.61,-960.897"/>
<polygon fill="black" stroke="black" points="1007.9,-964.165 1016.47,-957.939 1005.89,-957.46 1007.9,-964.165"/>
</g>
<!-- base64.py -->
<g id="node11" class="node"><title>base64.py</title>
<ellipse fill="none" stroke="black" cx="1047.27" cy="-1111" rx="27" ry="18"/>
<text text-anchor="middle" x="1047.27" y="-1109.4" font-family="Times,serif" font-size="7.00">base64.py</text>
</g>
<!-- trunk/app/common/common.py&#45;&gt;base64.py -->
<g id="edge6" class="edge"><title>trunk/app/common/common.py&#45;&gt;base64.py</title>
<path fill="none" stroke="black" d="M818.455,-1042.66C872.042,-1058.73 963.442,-1086.15 1012.6,-1100.9"/>
<polygon fill="black" stroke="black" points="1011.84,-1104.33 1022.43,-1103.85 1013.85,-1097.62 1011.84,-1104.33"/>
</g>
<!-- hashlib.py -->
<g id="node12" class="node"><title>hashlib.py</title>
<ellipse fill="none" stroke="black" cx="1047.27" cy="-1057" rx="27" ry="18"/>
<text text-anchor="middle" x="1047.27" y="-1055.4" font-family="Times,serif" font-size="7.00">hashlib.py</text>
</g>
<!-- trunk/app/common/common.py&#45;&gt;hashlib.py -->
<g id="edge7" class="edge"><title>trunk/app/common/common.py&#45;&gt;hashlib.py</title>
<path fill="none" stroke="black" d="M832.54,-1035.63C886.021,-1040.98 964.84,-1048.86 1010.32,-1053.4"/>
<polygon fill="black" stroke="black" points="1010.01,-1056.89 1020.31,-1054.4 1010.71,-1049.93 1010.01,-1056.89"/>
</g>
<!-- random.py -->
<g id="node13" class="node"><title>random.py</title>
<ellipse fill="none" stroke="black" cx="1047.27" cy="-1003" rx="27" ry="18"/>
<text text-anchor="middle" x="1047.27" y="-1001.4" font-family="Times,serif" font-size="7.00">random.py</text>
</g>
<!-- trunk/app/common/common.py&#45;&gt;random.py -->
<g id="edge10" class="edge"><title>trunk/app/common/common.py&#45;&gt;random.py</title>
<path fill="none" stroke="black" d="M832.54,-1024.37C886.021,-1019.02 964.84,-1011.14 1010.32,-1006.6"/>
<polygon fill="black" stroke="black" points="1010.71,-1010.07 1020.31,-1005.6 1010.01,-1003.11 1010.71,-1010.07"/>
</g>
<!-- trunk/app/common/datex2.py -->
<g id="node14" class="node"><title>trunk/app/common/datex2.py</title>
<ellipse fill="lightgrey" stroke="black" cx="441.268" cy="-1198" rx="57.4802" ry="18"/>
<text text-anchor="middle" x="441.268" y="-1196.4" font-family="Times,serif" font-size="7.00">trunk/app/common/datex2.py</text>
</g>
<!-- trunk/app/common/datex2.py&#45;&gt;logging -->
<g id="edge14" class="edge"><title>trunk/app/common/datex2.py&#45;&gt;logging</title>
<path fill="none" stroke="black" d="M475.419,-1183.5C526.32,-1161.55 627.071,-1119.34 714.987,-1090 767.683,-1072.41 790.585,-1089.63 835.549,-1057 950.993,-973.23 915.689,-894.114 1012.1,-789 1014.53,-786.357 1017.23,-783.767 1020.02,-781.3"/>
<polygon fill="black" stroke="black" points="1022.48,-783.804 1027.96,-774.735 1018.02,-778.408 1022.48,-783.804"/>
</g>
<!-- trunk/app/common/datex2.py&#45;&gt;os.py -->
<g id="edge15" class="edge"><title>trunk/app/common/datex2.py&#45;&gt;os.py</title>
<path fill="none" stroke="black" d="M497.366,-1193.92C577.883,-1185.66 729.612,-1161.18 835.549,-1090 933.757,-1024.01 1005.68,-897.145 1033.55,-842.312"/>
<polygon fill="black" stroke="black" points="1036.75,-843.751 1038.09,-833.243 1030.49,-840.618 1036.75,-843.751"/>
</g>
<!-- trunk/app/common/datex2.py&#45;&gt;web -->
<g id="edge19" class="edge"><title>trunk/app/common/datex2.py&#45;&gt;web</title>
<path fill="none" stroke="black" d="M449.085,-1179.92C485.995,-1082.41 662.18,-622.196 714.987,-581 760.581,-545.431 934.115,-530.773 1010.18,-525.966"/>
<polygon fill="black" stroke="black" points="1010.47,-529.455 1020.24,-525.352 1010.05,-522.468 1010.47,-529.455"/>
</g>
<!-- trunk/app/common/datex2.py&#45;&gt;trunk/app/common/common.py -->
<g id="edge12" class="edge"><title>trunk/app/common/datex2.py&#45;&gt;trunk/app/common/common.py</title>
<path fill="none" stroke="black" d="M472.715,-1182.91C483.427,-1177.59 495.543,-1171.55 506.572,-1166 587.851,-1125.13 682.721,-1076.78 734.878,-1050.14"/>
<polygon fill="black" stroke="black" points="736.485,-1053.25 743.798,-1045.58 733.301,-1047.02 736.485,-1053.25"/>
</g>
<!-- datetime -->
<g id="node15" class="node"><title>datetime</title>
<ellipse fill="none" stroke="black" cx="1047.27" cy="-1244" rx="27" ry="18"/>
<text text-anchor="middle" x="1047.27" y="-1242.4" font-family="Times,serif" font-size="7.00">datetime</text>
</g>
<!-- trunk/app/common/datex2.py&#45;&gt;datetime -->
<g id="edge13" class="edge"><title>trunk/app/common/datex2.py&#45;&gt;datetime</title>
<path fill="none" stroke="black" d="M495.769,-1203.96C550.714,-1209.92 638.737,-1219.04 714.987,-1225 821.993,-1233.36 948.715,-1239.62 1009.78,-1242.4"/>
<polygon fill="black" stroke="black" points="1009.9,-1245.91 1020.05,-1242.87 1010.21,-1238.92 1009.9,-1245.91"/>
</g>
<!-- time -->
<g id="node16" class="node"><title>time</title>
<ellipse fill="none" stroke="black" cx="775.268" cy="-1198" rx="27" ry="18"/>
<text text-anchor="middle" x="775.268" y="-1196.4" font-family="Times,serif" font-size="7.00">time</text>
</g>
<!-- trunk/app/common/datex2.py&#45;&gt;time -->
<g id="edge16" class="edge"><title>trunk/app/common/datex2.py&#45;&gt;time</title>
<path fill="none" stroke="black" d="M498.963,-1198C567.308,-1198 680.153,-1198 737.844,-1198"/>
<polygon fill="black" stroke="black" points="737.952,-1201.5 747.952,-1198 737.952,-1194.5 737.952,-1201.5"/>
</g>
<!-- xml/etree/ElementTree.py -->
<g id="node17" class="node"><title>xml/etree/ElementTree.py</title>
<ellipse fill="none" stroke="black" cx="775.268" cy="-1382" rx="51.2012" ry="18"/>
<text text-anchor="middle" x="775.268" y="-1380.4" font-family="Times,serif" font-size="7.00">xml/etree/ElementTree.py</text>
</g>
<!-- trunk/app/common/datex2.py&#45;&gt;xml/etree/ElementTree.py -->
<g id="edge17" class="edge"><title>trunk/app/common/datex2.py&#45;&gt;xml/etree/ElementTree.py</title>
<path fill="none" stroke="black" d="M468.136,-1214C516.05,-1243.38 622.185,-1307.29 714.987,-1355 720.729,-1357.95 726.859,-1360.93 732.917,-1363.78"/>
<polygon fill="black" stroke="black" points="731.767,-1367.1 742.313,-1368.12 734.703,-1360.75 731.767,-1367.1"/>
</g>
<!-- xml/etree/cElementTree.py -->
<g id="node18" class="node"><title>xml/etree/cElementTree.py</title>
<ellipse fill="none" stroke="black" cx="775.268" cy="-1328" rx="53.0497" ry="18"/>
<text text-anchor="middle" x="775.268" y="-1326.4" font-family="Times,serif" font-size="7.00">xml/etree/cElementTree.py</text>
</g>
<!-- trunk/app/common/datex2.py&#45;&gt;xml/etree/cElementTree.py -->
<g id="edge18" class="edge"><title>trunk/app/common/datex2.py&#45;&gt;xml/etree/cElementTree.py</title>
<path fill="none" stroke="black" d="M477.797,-1211.91C538.862,-1235.82 663.56,-1284.65 730.11,-1310.71"/>
<polygon fill="black" stroke="black" points="728.904,-1314 739.492,-1314.38 731.457,-1307.48 728.904,-1314"/>
</g>
<!-- trunk/app/common/qttntcipobs.py -->
<g id="node19" class="node"><title>trunk/app/common/qttntcipobs.py</title>
<ellipse fill="lightgrey" stroke="black" cx="441.268" cy="-1382" rx="65.1092" ry="18"/>
<text text-anchor="middle" x="441.268" y="-1380.4" font-family="Times,serif" font-size="7.00">trunk/app/common/qttntcipobs.py</text>
</g>
<!-- trunk/app/common/qttntcipobs.py&#45;&gt;xml/etree/ElementTree.py -->
<g id="edge20" class="edge"><title>trunk/app/common/qttntcipobs.py&#45;&gt;xml/etree/ElementTree.py</title>
<path fill="none" stroke="black" d="M506.674,-1382C566.534,-1382 655.031,-1382 713.644,-1382"/>
<polygon fill="black" stroke="black" points="713.866,-1385.5 723.866,-1382 713.866,-1378.5 713.866,-1385.5"/>
</g>
<!-- trunk/app/common/qttntcipobs.py&#45;&gt;xml/etree/cElementTree.py -->
<g id="edge21" class="edge"><title>trunk/app/common/qttntcipobs.py&#45;&gt;xml/etree/cElementTree.py</title>
<path fill="none" stroke="black" d="M497.837,-1372.96C558.688,-1363.06 655.772,-1347.27 717.208,-1337.28"/>
<polygon fill="black" stroke="black" points="717.816,-1340.73 727.124,-1335.67 716.692,-1333.82 717.816,-1340.73"/>
</g>
<!-- trunk/app/common/vaipg.py -->
<g id="node20" class="node"><title>trunk/app/common/vaipg.py</title>
<ellipse fill="lightgrey" stroke="black" cx="115.268" cy="-1198" rx="55.6319" ry="18"/>
<text text-anchor="middle" x="115.268" y="-1196.4" font-family="Times,serif" font-size="7.00">trunk/app/common/vaipg.py</text>
</g>
<!-- trunk/app/common/vaipg.py&#45;&gt;logging -->
<g id="edge27" class="edge"><title>trunk/app/common/vaipg.py&#45;&gt;logging</title>
<path fill="none" stroke="black" d="M150.656,-1184.06C200.32,-1163.97 295.046,-1125.78 375.963,-1094 579.696,-1013.98 643.555,-1022.11 835.549,-917 873.973,-895.963 974.15,-818.61 1021.19,-781.765"/>
<polygon fill="black" stroke="black" points="1023.35,-784.514 1029.06,-775.587 1019.03,-779.007 1023.35,-784.514"/>
</g>
<!-- trunk/app/common/vaipg.py&#45;&gt;web -->
<g id="edge28" class="edge"><title>trunk/app/common/vaipg.py&#45;&gt;web</title>
<path fill="none" stroke="black" d="M123.195,-1179.95C156.257,-1094.31 299.562,-729.298 375.963,-635 494.319,-488.921 536.555,-441.24 714.987,-382 765.84,-365.117 784.303,-366.345 835.549,-382 912.818,-405.606 987.379,-468.115 1023.56,-501.781"/>
<polygon fill="black" stroke="black" points="1021.42,-504.575 1031.09,-508.895 1026.22,-499.485 1021.42,-504.575"/>
</g>
<!-- trunk/app/common/vaipg.py&#45;&gt;trunk/app/common/common.py -->
<g id="edge22" class="edge"><title>trunk/app/common/vaipg.py&#45;&gt;trunk/app/common/common.py</title>
<path fill="none" stroke="black" d="M159.441,-1186.98C274.827,-1157.52 590.303,-1076.97 718.749,-1044.18"/>
<polygon fill="black" stroke="black" points="719.941,-1047.48 728.765,-1041.62 718.21,-1040.7 719.941,-1047.48"/>
</g>
<!-- trunk/app/common/vaipg.py&#45;&gt;trunk/app/common/datex2.py -->
<g id="edge23" class="edge"><title>trunk/app/common/vaipg.py&#45;&gt;trunk/app/common/datex2.py</title>
<path fill="none" stroke="black" d="M171.23,-1198C227.125,-1198 313.79,-1198 373.578,-1198"/>
<polygon fill="black" stroke="black" points="373.673,-1201.5 383.673,-1198 373.673,-1194.5 373.673,-1201.5"/>
</g>
<!-- trunk/app/common/vaipg.py&#45;&gt;datetime -->
<g id="edge26" class="edge"><title>trunk/app/common/vaipg.py&#45;&gt;datetime</title>
<path fill="none" stroke="black" d="M149.265,-1212.43C156.662,-1216.16 164.317,-1220.42 171.083,-1225 272.459,-1293.57 261.675,-1365.21 375.963,-1409 566.703,-1482.08 642.453,-1475.61 835.549,-1409 917.769,-1380.64 992.411,-1305.54 1026.6,-1267.21"/>
<polygon fill="black" stroke="black" points="1029.3,-1269.44 1033.27,-1259.62 1024.04,-1264.82 1029.3,-1269.44"/>
</g>
<!-- trunk/app/common/vaipg.py&#45;&gt;trunk/app/common/qttntcipobs.py -->
<g id="edge24" class="edge"><title>trunk/app/common/vaipg.py&#45;&gt;trunk/app/common/qttntcipobs.py</title>
<path fill="none" stroke="black" d="M147.589,-1212.7C155.351,-1216.55 163.59,-1220.79 171.083,-1225 265.12,-1277.79 280.382,-1305.06 375.963,-1355 381.457,-1357.87 387.324,-1360.67 393.196,-1363.32"/>
<polygon fill="black" stroke="black" points="391.811,-1366.53 402.375,-1367.34 394.618,-1360.12 391.811,-1366.53"/>
</g>
<!-- trunk/app/common/vaisalaobs.py -->
<g id="node21" class="node"><title>trunk/app/common/vaisalaobs.py</title>
<ellipse fill="lightgrey" stroke="black" cx="441.268" cy="-1328" rx="63.7599" ry="18"/>
<text text-anchor="middle" x="441.268" y="-1326.4" font-family="Times,serif" font-size="7.00">trunk/app/common/vaisalaobs.py</text>
</g>
<!-- trunk/app/common/vaipg.py&#45;&gt;trunk/app/common/vaisalaobs.py -->
<g id="edge25" class="edge"><title>trunk/app/common/vaipg.py&#45;&gt;trunk/app/common/vaisalaobs.py</title>
<path fill="none" stroke="black" d="M150.941,-1211.91C209.636,-1235.46 328.572,-1283.18 394.198,-1309.52"/>
<polygon fill="black" stroke="black" points="393.284,-1312.92 403.868,-1313.4 395.89,-1306.42 393.284,-1312.92"/>
</g>
<!-- trunk/app/common/vaisalaobs.py&#45;&gt;xml/etree/ElementTree.py -->
<g id="edge29" class="edge"><title>trunk/app/common/vaisalaobs.py&#45;&gt;xml/etree/ElementTree.py</title>
<path fill="none" stroke="black" d="M496.719,-1336.86C557.884,-1346.81 656.655,-1362.87 718.395,-1372.91"/>
<polygon fill="black" stroke="black" points="717.917,-1376.38 728.349,-1374.53 719.041,-1369.47 717.917,-1376.38"/>
</g>
<!-- trunk/app/common/vaisalaobs.py&#45;&gt;xml/etree/cElementTree.py -->
<g id="edge30" class="edge"><title>trunk/app/common/vaisalaobs.py&#45;&gt;xml/etree/cElementTree.py</title>
<path fill="none" stroke="black" d="M505.105,-1328C564.337,-1328 652.601,-1328 711.734,-1328"/>
<polygon fill="black" stroke="black" points="712.057,-1331.5 722.057,-1328 712.057,-1324.5 712.057,-1331.5"/>
</g>
<!-- trunk/app/datex2.py -->
<g id="node22" class="node"><title>trunk/app/datex2.py</title>
<ellipse fill="lightgrey" stroke="black" cx="775.268" cy="-716" rx="42.3399" ry="18"/>
<text text-anchor="middle" x="775.268" y="-714.4" font-family="Times,serif" font-size="7.00">trunk/app/datex2.py</text>
</g>
<!-- trunk/app/datex2.py&#45;&gt;logging -->
<g id="edge31" class="edge"><title>trunk/app/datex2.py&#45;&gt;logging</title>
<path fill="none" stroke="black" d="M814.952,-722.591C867.363,-731.52 960.186,-747.334 1010.85,-755.966"/>
<polygon fill="black" stroke="black" points="1010.55,-759.465 1020.99,-757.694 1011.72,-752.564 1010.55,-759.465"/>
</g>
<!-- trunk/app/datex2.py&#45;&gt;os.py -->
<g id="edge32" class="edge"><title>trunk/app/datex2.py&#45;&gt;os.py</title>
<path fill="none" stroke="black" d="M807.769,-727.667C859.389,-746.786 961.466,-784.592 1013.74,-803.954"/>
<polygon fill="black" stroke="black" points="1012.61,-807.267 1023.2,-807.458 1015.04,-800.703 1012.61,-807.267"/>
</g>
<!-- trunk/app/datex2.py&#45;&gt;web -->
<g id="edge33" class="edge"><title>trunk/app/datex2.py&#45;&gt;web</title>
<path fill="none" stroke="black" d="M806.83,-703.742C816.278,-699.516 826.559,-694.46 835.549,-689 908.466,-644.71 985.185,-579.072 1022.74,-545.493"/>
<polygon fill="black" stroke="black" points="1025.48,-547.738 1030.57,-538.448 1020.8,-542.534 1025.48,-547.738"/>
</g>
<!-- trunk/app/index.py -->
<g id="node23" class="node"><title>trunk/app/index.py</title>
<ellipse fill="lightgrey" stroke="black" cx="775.268" cy="-478" rx="40.9923" ry="18"/>
<text text-anchor="middle" x="775.268" y="-476.4" font-family="Times,serif" font-size="7.00">trunk/app/index.py</text>
</g>
<!-- trunk/app/index.py&#45;&gt;logging -->
<g id="edge34" class="edge"><title>trunk/app/index.py&#45;&gt;logging</title>
<path fill="none" stroke="black" d="M791.951,-494.497C837.864,-542.79 972.058,-683.943 1024.71,-739.326"/>
<polygon fill="black" stroke="black" points="1022.44,-742.017 1031.87,-746.853 1027.51,-737.194 1022.44,-742.017"/>
</g>
<!-- trunk/app/index.py&#45;&gt;web -->
<g id="edge35" class="edge"><title>trunk/app/index.py&#45;&gt;web</title>
<path fill="none" stroke="black" d="M813.527,-484.348C865.632,-493.225 959.609,-509.236 1010.76,-517.95"/>
<polygon fill="black" stroke="black" points="1010.25,-521.413 1020.69,-519.643 1011.42,-514.513 1010.25,-521.413"/>
</g>
<!-- trunk/app/tables.py -->
<g id="node24" class="node"><title>trunk/app/tables.py</title>
<ellipse fill="lightgrey" stroke="black" cx="775.268" cy="-770" rx="41.1081" ry="18"/>
<text text-anchor="middle" x="775.268" y="-768.4" font-family="Times,serif" font-size="7.00">trunk/app/tables.py</text>
</g>
<!-- trunk/app/tables.py&#45;&gt;logging -->
<g id="edge37" class="edge"><title>trunk/app/tables.py&#45;&gt;logging</title>
<path fill="none" stroke="black" d="M816.689,-768.802C869.154,-767.248 959.917,-764.559 1010.17,-763.07"/>
<polygon fill="black" stroke="black" points="1010.36,-766.566 1020.25,-762.771 1010.15,-759.569 1010.36,-766.566"/>
</g>
<!-- trunk/app/tables.py&#45;&gt;os.py -->
<g id="edge38" class="edge"><title>trunk/app/tables.py&#45;&gt;os.py</title>
<path fill="none" stroke="black" d="M814.094,-776.445C866.369,-785.351 959.996,-801.302 1010.92,-809.978"/>
<polygon fill="black" stroke="black" points="1010.37,-813.434 1020.81,-811.663 1011.54,-806.533 1010.37,-813.434"/>
</g>
<!-- trunk/app/tables.py&#45;&gt;web -->
<g id="edge39" class="edge"><title>trunk/app/tables.py&#45;&gt;web</title>
<path fill="none" stroke="black" d="M807.322,-758.492C816.794,-754.302 826.964,-749.077 835.549,-743 917.707,-684.838 994.439,-591.737 1028.2,-548.074"/>
<polygon fill="black" stroke="black" points="1031.07,-550.092 1034.37,-540.026 1025.51,-545.834 1031.07,-550.092"/>
</g>
<!-- trunk/app/tables.py&#45;&gt;datetime -->
<g id="edge36" class="edge"><title>trunk/app/tables.py&#45;&gt;datetime</title>
<path fill="none" stroke="black" d="M793.434,-786.332C806.044,-798.888 823.08,-817.068 835.549,-835 928.801,-969.116 1007.53,-1149.96 1035.44,-1217.29"/>
<polygon fill="black" stroke="black" points="1032.28,-1218.82 1039.33,-1226.74 1038.76,-1216.16 1032.28,-1218.82"/>
</g>
<!-- trunk/app/vaisalaobs.py -->
<g id="node25" class="node"><title>trunk/app/vaisalaobs.py</title>
<ellipse fill="lightgrey" stroke="black" cx="775.268" cy="-662" rx="48.6193" ry="18"/>
<text text-anchor="middle" x="775.268" y="-660.4" font-family="Times,serif" font-size="7.00">trunk/app/vaisalaobs.py</text>
</g>
<!-- trunk/app/vaisalaobs.py&#45;&gt;logging -->
<g id="edge40" class="edge"><title>trunk/app/vaisalaobs.py&#45;&gt;logging</title>
<path fill="none" stroke="black" d="M810.19,-674.564C862.506,-693.94 962.208,-730.867 1013.7,-749.936"/>
<polygon fill="black" stroke="black" points="1012.73,-753.31 1023.32,-753.501 1015.16,-746.746 1012.73,-753.31"/>
</g>
<!-- trunk/app/vaisalaobs.py&#45;&gt;os.py -->
<g id="edge41" class="edge"><title>trunk/app/vaisalaobs.py&#45;&gt;os.py</title>
<path fill="none" stroke="black" d="M807.667,-675.49C816.766,-679.616 826.644,-684.309 835.549,-689 903.213,-724.648 979.308,-772.558 1018.94,-798.138"/>
<polygon fill="black" stroke="black" points="1017.22,-801.194 1027.52,-803.693 1021.02,-795.319 1017.22,-801.194"/>
</g>
<!-- trunk/app/vaisalaobs.py&#45;&gt;web -->
<g id="edge42" class="edge"><title>trunk/app/vaisalaobs.py&#45;&gt;web</title>
<path fill="none" stroke="black" d="M807.193,-648.32C816.371,-644.151 826.411,-639.483 835.549,-635 901.155,-602.813 976.606,-562.164 1017.04,-540.078"/>
<polygon fill="black" stroke="black" points="1018.74,-543.138 1025.83,-535.267 1015.38,-536.998 1018.74,-543.138"/>
</g>
<!-- trunk/ingest.py -->
<g id="node26" class="node"><title>trunk/ingest.py</title>
<ellipse fill="lightgrey" stroke="black" cx="441.268" cy="-992" rx="34.7117" ry="18"/>
<text text-anchor="middle" x="441.268" y="-990.4" font-family="Times,serif" font-size="7.00">trunk/ingest.py</text>
</g>
<!-- trunk/ingest.py&#45;&gt;web -->
<g id="edge46" class="edge"><title>trunk/ingest.py&#45;&gt;web</title>
<path fill="none" stroke="black" d="M446.971,-973.786C466.106,-903.826 545.305,-651.136 714.987,-548 809.043,-490.831 947.008,-505.571 1011.12,-516.77"/>
<polygon fill="black" stroke="black" points="1010.65,-520.242 1021.12,-518.594 1011.91,-513.356 1010.65,-520.242"/>
</g>
<!-- trunk/ingest.py&#45;&gt;trunk/app/common/common.py -->
<g id="edge43" class="edge"><title>trunk/ingest.py&#45;&gt;trunk/app/common/common.py</title>
<path fill="none" stroke="black" d="M475.315,-995.783C529.482,-1001.98 638.155,-1014.42 708.48,-1022.47"/>
<polygon fill="black" stroke="black" points="708.234,-1025.96 718.567,-1023.62 709.03,-1019.01 708.234,-1025.96"/>
</g>
<!-- trunk/ingest.py&#45;&gt;datetime -->
<g id="edge44" class="edge"><title>trunk/ingest.py&#45;&gt;datetime</title>
<path fill="none" stroke="black" d="M469,-1003.15C567.299,-1044.17 908.499,-1186.52 1014.56,-1230.77"/>
<polygon fill="black" stroke="black" points="1013.21,-1234 1023.79,-1234.62 1015.91,-1227.54 1013.21,-1234"/>
</g>
<!-- sys -->
<g id="node27" class="node"><title>sys</title>
<ellipse fill="none" stroke="black" cx="775.268" cy="-862" rx="27" ry="18"/>
<text text-anchor="middle" x="775.268" y="-860.4" font-family="Times,serif" font-size="7.00">sys</text>
</g>
<!-- trunk/ingest.py&#45;&gt;sys -->
<g id="edge45" class="edge"><title>trunk/ingest.py&#45;&gt;sys</title>
<path fill="none" stroke="black" d="M469.437,-981.362C530.273,-957.54 677.203,-900.007 742.302,-874.517"/>
<polygon fill="black" stroke="black" points="743.623,-877.758 751.658,-870.853 741.07,-871.24 743.623,-877.758"/>
</g>
<!-- trunk/server.py -->
<g id="node28" class="node"><title>trunk/server.py</title>
<ellipse fill="lightgrey" stroke="black" cx="441.268" cy="-662" rx="34.0951" ry="18"/>
<text text-anchor="middle" x="441.268" y="-660.4" font-family="Times,serif" font-size="7.00">trunk/server.py</text>
</g>
<!-- trunk/server.py&#45;&gt;trunk/app/admin.py -->
<g id="edge47" class="edge"><title>trunk/server.py&#45;&gt;trunk/app/admin.py</title>
<path fill="none" stroke="black" d="M474.101,-656.822C532.532,-647.318 657.203,-627.041 726.069,-615.84"/>
<polygon fill="black" stroke="black" points="726.909,-619.249 736.217,-614.189 725.785,-612.34 726.909,-619.249"/>
</g>
<!-- trunk/server.py&#45;&gt;os.py -->
<g id="edge54" class="edge"><title>trunk/server.py&#45;&gt;os.py</title>
<path fill="none" stroke="black" d="M463.014,-675.968C507.109,-704.794 614.368,-770.398 714.987,-797 819.495,-824.63 948.784,-821.964 1010.38,-818.569"/>
<polygon fill="black" stroke="black" points="1010.59,-822.063 1020.37,-817.979 1010.18,-815.075 1010.59,-822.063"/>
</g>
<!-- trunk/server.py&#45;&gt;web -->
<g id="edge56" class="edge"><title>trunk/server.py&#45;&gt;web</title>
<path fill="none" stroke="black" d="M452.847,-644.814C484.823,-594.748 586.219,-449.258 714.987,-397 829.805,-350.403 968.744,-455.467 1022.99,-502.607"/>
<polygon fill="black" stroke="black" points="1020.85,-505.385 1030.66,-509.381 1025.48,-500.138 1020.85,-505.385"/>
</g>
<!-- trunk/server.py&#45;&gt;trunk/app/common/common.py -->
<g id="edge48" class="edge"><title>trunk/server.py&#45;&gt;trunk/app/common/common.py</title>
<path fill="none" stroke="black" d="M456.962,-678.287C509.525,-736.55 688.445,-934.872 751.804,-1005.1"/>
<polygon fill="black" stroke="black" points="749.303,-1007.55 758.6,-1012.63 754.501,-1002.86 749.303,-1007.55"/>
</g>
<!-- trunk/server.py&#45;&gt;trunk/app/datex2.py -->
<g id="edge49" class="edge"><title>trunk/server.py&#45;&gt;trunk/app/datex2.py</title>
<path fill="none" stroke="black" d="M474.101,-667.178C532.3,-676.644 656.216,-696.799 725.248,-708.027"/>
<polygon fill="black" stroke="black" points="724.997,-711.532 735.429,-709.683 726.12,-704.623 724.997,-711.532"/>
</g>
<!-- trunk/server.py&#45;&gt;trunk/app/index.py -->
<g id="edge50" class="edge"><title>trunk/server.py&#45;&gt;trunk/app/index.py</title>
<path fill="none" stroke="black" d="M465.196,-649.084C512.024,-622.734 622.077,-560.965 714.987,-510 722.959,-505.627 731.556,-500.959 739.663,-496.578"/>
<polygon fill="black" stroke="black" points="741.409,-499.613 748.549,-491.786 738.086,-493.452 741.409,-499.613"/>
</g>
<!-- trunk/server.py&#45;&gt;trunk/app/tables.py -->
<g id="edge51" class="edge"><title>trunk/server.py&#45;&gt;trunk/app/tables.py</title>
<path fill="none" stroke="black" d="M470.574,-671.208C529.013,-690.218 663.277,-733.894 732.022,-756.258"/>
<polygon fill="black" stroke="black" points="731.081,-759.632 741.673,-759.397 733.246,-752.975 731.081,-759.632"/>
</g>
<!-- trunk/server.py&#45;&gt;trunk/app/vaisalaobs.py -->
<g id="edge52" class="edge"><title>trunk/server.py&#45;&gt;trunk/app/vaisalaobs.py</title>
<path fill="none" stroke="black" d="M475.621,-662C531.927,-662 646.499,-662 716.216,-662"/>
<polygon fill="black" stroke="black" points="716.584,-665.5 726.584,-662 716.584,-658.5 716.584,-665.5"/>
</g>
<!-- trunk/server.py&#45;&gt;sys -->
<g id="edge55" class="edge"><title>trunk/server.py&#45;&gt;sys</title>
<path fill="none" stroke="black" d="M463.582,-675.707C509.196,-704.913 619.869,-775.09 714.987,-830 724.483,-835.482 734.974,-841.24 744.458,-846.337"/>
<polygon fill="black" stroke="black" points="743.061,-849.559 753.532,-851.179 746.357,-843.384 743.061,-849.559"/>
</g>
<!-- logging/config.py -->
<g id="node29" class="node"><title>logging/config.py</title>
<ellipse fill="none" stroke="black" cx="775.268" cy="-424" rx="39.142" ry="18"/>
<text text-anchor="middle" x="775.268" y="-422.4" font-family="Times,serif" font-size="7.00">logging/config.py</text>
</g>
<!-- trunk/server.py&#45;&gt;logging/config.py -->
<g id="edge53" class="edge"><title>trunk/server.py&#45;&gt;logging/config.py</title>
<path fill="none" stroke="black" d="M459.423,-646.412C500.963,-609.202 611.196,-513.631 714.987,-451 721.511,-447.063 728.707,-443.329 735.769,-439.962"/>
<polygon fill="black" stroke="black" points="737.612,-442.967 745.241,-435.616 734.693,-436.605 737.612,-442.967"/>
</g>
<!-- trunk/test_request.py -->
<g id="node30" class="node"><title>trunk/test_request.py</title>
<ellipse fill="lightgrey" stroke="black" cx="115.268" cy="-1030" rx="44.1889" ry="18"/>
<text text-anchor="middle" x="115.268" y="-1028.4" font-family="Times,serif" font-size="7.00">trunk/test_request.py</text>
</g>
<!-- trunk/test_request.py&#45;&gt;logging -->
<g id="edge60" class="edge"><title>trunk/test_request.py&#45;&gt;logging</title>
<path fill="none" stroke="black" d="M148.135,-1017.71C196.601,-999.508 292.077,-965.533 375.963,-947 576.996,-902.585 641.043,-956.487 835.549,-889 908.398,-863.724 983.291,-810.941 1021.12,-782.016"/>
<polygon fill="black" stroke="black" points="1023.71,-784.433 1029.48,-775.545 1019.43,-778.897 1023.71,-784.433"/>
</g>
<!-- trunk/test_request.py&#45;&gt;os.py -->
<g id="edge61" class="edge"><title>trunk/test_request.py&#45;&gt;os.py</title>
<path fill="none" stroke="black" d="M151.192,-1019.46C200.719,-1004.92 294.417,-978.937 375.963,-965 578.183,-930.439 638.368,-978.633 835.549,-922 905.511,-901.906 979.907,-858.613 1018.85,-834.024"/>
<polygon fill="black" stroke="black" points="1020.97,-836.825 1027.51,-828.493 1017.2,-830.925 1020.97,-836.825"/>
</g>
<!-- trunk/test_request.py&#45;&gt;web -->
<g id="edge62" class="edge"><title>trunk/test_request.py&#45;&gt;web</title>
<path fill="none" stroke="black" d="M116.168,-1011.76C116.771,-918.776 133.09,-495.279 375.963,-326 459.75,-267.602 740.596,-288.389 835.549,-326 924.807,-361.356 998.306,-454.392 1029.78,-499.193"/>
<polygon fill="black" stroke="black" points="1026.94,-501.242 1035.5,-507.479 1032.7,-497.262 1026.94,-501.242"/>
</g>
<!-- trunk/test_request.py&#45;&gt;trunk/app/common/common.py -->
<g id="edge57" class="edge"><title>trunk/test_request.py&#45;&gt;trunk/app/common/common.py</title>
<path fill="none" stroke="black" d="M158.029,-1034.63C209.283,-1040.06 298.885,-1048.74 375.963,-1052 433.96,-1054.45 448.572,-1054.38 506.572,-1052 575.403,-1049.18 653.938,-1042.29 708.056,-1036.96"/>
<polygon fill="black" stroke="black" points="708.601,-1040.42 718.206,-1035.95 707.909,-1033.46 708.601,-1040.42"/>
</g>
<!-- trunk/test_request.py&#45;&gt;trunk/app/common/datex2.py -->
<g id="edge58" class="edge"><title>trunk/test_request.py&#45;&gt;trunk/app/common/datex2.py</title>
<path fill="none" stroke="black" d="M143.334,-1044.03C200.857,-1073.86 335.423,-1143.64 401.822,-1178.07"/>
<polygon fill="black" stroke="black" points="400.235,-1181.18 410.723,-1182.68 403.457,-1174.97 400.235,-1181.18"/>
</g>
<!-- trunk/test_request.py&#45;&gt;datetime -->
<g id="edge59" class="edge"><title>trunk/test_request.py&#45;&gt;datetime</title>
<path fill="none" stroke="black" d="M131.494,-1046.88C168.619,-1086.69 268.657,-1186.01 375.963,-1225 605.55,-1308.43 909.088,-1267.86 1011.12,-1250.51"/>
<polygon fill="black" stroke="black" points="1011.93,-1253.92 1021.18,-1248.76 1010.73,-1247.03 1011.93,-1253.92"/>
</g>
<!-- trunk/test_server.py -->
<g id="node31" class="node"><title>trunk/test_server.py</title>
<ellipse fill="lightgrey" stroke="black" cx="115.268" cy="-172" rx="41.7239" ry="18"/>
<text text-anchor="middle" x="115.268" y="-170.4" font-family="Times,serif" font-size="7.00">trunk/test_server.py</text>
</g>
<!-- trunk/test_server.py&#45;&gt;web -->
<g id="edge69" class="edge"><title>trunk/test_server.py&#45;&gt;web</title>
<path fill="none" stroke="black" d="M157.159,-170.858C300.775,-167.151 776.621,-157.533 835.549,-191 956.675,-259.792 1018.42,-429.803 1038.62,-496.51"/>
<polygon fill="black" stroke="black" points="1035.32,-497.697 1041.51,-506.298 1042.04,-495.716 1035.32,-497.697"/>
</g>
<!-- trunk/test_server.py&#45;&gt;trunk/app/common/common.py -->
<g id="edge63" class="edge"><title>trunk/test_server.py&#45;&gt;trunk/app/common/common.py</title>
<path fill="none" stroke="black" d="M118.943,-190.089C136.056,-303.111 233.979,-910.962 375.963,-1019 426.408,-1057.38 608.751,-1046.45 708.295,-1037.14"/>
<polygon fill="black" stroke="black" points="708.921,-1040.59 718.543,-1036.16 708.255,-1033.62 708.921,-1040.59"/>
</g>
<!-- trunk/test_server.py&#45;&gt;trunk/server.py -->
<g id="edge64" class="edge"><title>trunk/test_server.py&#45;&gt;trunk/server.py</title>
<path fill="none" stroke="black" d="M127.799,-189.439C176.521,-263.124 365.647,-549.148 423.415,-636.512"/>
<polygon fill="black" stroke="black" points="420.607,-638.612 429.042,-645.023 426.446,-634.751 420.607,-638.612"/>
</g>
<!-- trunk/tools.py -->
<g id="node32" class="node"><title>trunk/tools.py</title>
<ellipse fill="lightgrey" stroke="black" cx="441.268" cy="-237" rx="32.8626" ry="18"/>
<text text-anchor="middle" x="441.268" y="-235.4" font-family="Times,serif" font-size="7.00">trunk/tools.py</text>
</g>
<!-- trunk/test_server.py&#45;&gt;trunk/tools.py -->
<g id="edge65" class="edge"><title>trunk/test_server.py&#45;&gt;trunk/tools.py</title>
<path fill="none" stroke="black" d="M153.435,-179.456C214.842,-191.776 336.967,-216.276 400.218,-228.965"/>
<polygon fill="black" stroke="black" points="399.72,-232.435 410.213,-230.971 401.097,-225.572 399.72,-232.435"/>
</g>
<!-- nose/tools -->
<g id="node33" class="node"><title>nose/tools</title>
<ellipse fill="none" stroke="black" cx="441.268" cy="-72" rx="27" ry="18"/>
<text text-anchor="middle" x="441.268" y="-70.4" font-family="Times,serif" font-size="7.00">nose/tools</text>
</g>
<!-- trunk/test_server.py&#45;&gt;nose/tools -->
<g id="edge66" class="edge"><title>trunk/test_server.py&#45;&gt;nose/tools</title>
<path fill="none" stroke="black" d="M149.721,-161.675C211.902,-142.483 344.603,-101.526 406.798,-82.3303"/>
<polygon fill="black" stroke="black" points="407.982,-85.6278 416.505,-79.3342 405.917,-78.9391 407.982,-85.6278"/>
</g>
<!-- lxml/etree.so -->
<g id="node34" class="node"><title>lxml/etree.so</title>
<ellipse fill="none" stroke="black" cx="441.268" cy="-18" rx="30.2815" ry="18"/>
<text text-anchor="middle" x="441.268" y="-16.4" font-family="Times,serif" font-size="7.00">lxml/etree.so</text>
</g>
<!-- trunk/test_server.py&#45;&gt;lxml/etree.so -->
<g id="edge67" class="edge"><title>trunk/test_server.py&#45;&gt;lxml/etree.so</title>
<path fill="none" stroke="black" d="M143.436,-158.604C205.269,-128.132 352.942,-55.4517 375.963,-45 385.721,-40.5702 396.417,-35.9764 406.236,-31.8614"/>
<polygon fill="black" stroke="black" points="407.806,-34.9995 415.697,-27.9298 405.119,-28.5355 407.806,-34.9995"/>
</g>
<!-- paste/fixture.py -->
<g id="node35" class="node"><title>paste/fixture.py</title>
<ellipse fill="none" stroke="black" cx="441.268" cy="-126" rx="34.7117" ry="18"/>
<text text-anchor="middle" x="441.268" y="-124.4" font-family="Times,serif" font-size="7.00">paste/fixture.py</text>
</g>
<!-- trunk/test_server.py&#45;&gt;paste/fixture.py -->
<g id="edge68" class="edge"><title>trunk/test_server.py&#45;&gt;paste/fixture.py</title>
<path fill="none" stroke="black" d="M155.35,-166.451C216.413,-157.782 333.998,-141.088 397.342,-132.094"/>
<polygon fill="black" stroke="black" points="397.989,-135.538 407.398,-130.667 397.005,-128.607 397.989,-135.538"/>
</g>
<!-- trunk/tools.py&#45;&gt;web -->
<g id="edge72" class="edge"><title>trunk/tools.py&#45;&gt;web</title>
<path fill="none" stroke="black" d="M473.791,-233.971C543.511,-228.726 714.215,-223.99 835.549,-288 930.024,-337.841 1002.56,-448.143 1031.97,-498.289"/>
<polygon fill="black" stroke="black" points="1029.09,-500.29 1037.12,-507.202 1035.15,-496.792 1029.09,-500.29"/>
</g>
<!-- trunk/tools.py&#45;&gt;trunk/app/common/common.py -->
<g id="edge70" class="edge"><title>trunk/tools.py&#45;&gt;trunk/app/common/common.py</title>
<path fill="none" stroke="black" d="M449.632,-254.639C481.342,-330.585 609.409,-637.239 714.987,-889 731.522,-928.43 750.709,-974.04 762.67,-1002.46"/>
<polygon fill="black" stroke="black" points="759.477,-1003.89 766.583,-1011.75 765.929,-1001.18 759.477,-1003.89"/>
</g>
<!-- csv.py -->
<g id="node36" class="node"><title>csv.py</title>
<ellipse fill="none" stroke="black" cx="775.268" cy="-218" rx="27" ry="18"/>
<text text-anchor="middle" x="775.268" y="-216.4" font-family="Times,serif" font-size="7.00">csv.py</text>
</g>
<!-- trunk/tools.py&#45;&gt;csv.py -->
<g id="edge71" class="edge"><title>trunk/tools.py&#45;&gt;csv.py</title>
<path fill="none" stroke="black" d="M474.101,-235.178C536.058,-231.632 672.494,-223.824 737.902,-220.081"/>
<polygon fill="black" stroke="black" points="738.357,-223.561 748.14,-219.495 737.957,-216.572 738.357,-223.561"/>
</g>
</g>
</svg>
